<?xml version="1.0" encoding="UTF-8" standalone="no"?>
<!-- Created with Inkscape (http://www.inkscape.org/) -->

<svg
   xmlns:dc="http://purl.org/dc/elements/1.1/"
   xmlns:cc="http://creativecommons.org/ns#"
   xmlns:rdf="http://www.w3.org/1999/02/22-rdf-syntax-ns#"
   xmlns:svg="http://www.w3.org/2000/svg"
   xmlns="http://www.w3.org/2000/svg"
   xmlns:sodipodi="http://sodipodi.sourceforge.net/DTD/sodipodi-0.dtd"
   xmlns:inkscape="http://www.inkscape.org/namespaces/inkscape"
   width="744.09448819"
   height="1052.3622047"
   id="svg2"
   version="1.1"
   inkscape:version="0.48.5 r10040"
   sodipodi:docname="New document 1">
  <defs
     id="defs4" />
  <sodipodi:namedview
     id="base"
     pagecolor="#ffffff"
     bordercolor="#666666"
     borderopacity="1.0"
     inkscape:pageopacity="0.0"
     inkscape:pageshadow="2"
     inkscape:zoom="0.35"
     inkscape:cx="375"
     inkscape:cy="520"
     inkscape:document-units="px"
     inkscape:current-layer="layer1"
     showgrid="false"
     inkscape:window-width="1366"
     inkscape:window-height="705"
     inkscape:window-x="-8"
     inkscape:window-y="-8"
     inkscape:window-maximized="1" />
  <metadata
     id="metadata7">
    <rdf:RDF>
      <cc:Work
         rdf:about="">
        <dc:format>image/svg+xml</dc:format>
        <dc:type
           rdf:resource="http://purl.org/dc/dcmitype/StillImage" />
        <dc:title></dc:title>
      </cc:Work>
    </rdf:RDF>
  </metadata>
  <g
     inkscape:label="Layer 1"
     inkscape:groupmode="layer"
     id="layer1">
    <path
       style="fill:#550000"
       id="path2985"
       d="m 149.15397,650.48021 c 4.86444,-46.60833 -9.26287,-93.67459 -4.6225,-140.20374 6.63161,-66.49546 41.84378,-137.55076 80.7743,-191.0227 10.03409,-13.78205 21.93656,-26.10172 32.90484,-39.15258 21.93554,-22.44572 45.19428,-44.43169 72.67334,-60.07785 0.91157,-0.51903 41.21723,-29.43182 60.15065,-27.57017 2.98788,0.29379 5.52803,2.3443 8.29204,3.51645 1.81412,2.74195 4.16652,5.19574 5.44235,8.22585 3.12769,7.4283 4.0147,19.2566 4.5434,26.86443 1.22087,17.56798 0.88512,35.2537 0.89802,52.84895 -0.18269,27.88147 -0.32587,55.76285 -0.39518,83.64491 -0.0314,15.8748 0.0116,31.7504 0.16618,47.62454 0.9542,8.35595 -1.7629,19.14896 1.38248,27.01677 0.27054,4.07968 3.30097,-1.00062 2.48228,-0.56812 -12.04082,6.36088 -23.6973,13.42409 -35.54595,20.13613 0,0 39.21605,-16.55887 39.21605,-16.55887 l 0,0 c -14.32763,8.54609 -31.63153,34.02582 -43.03658,17.5991 -0.46425,-1.14742 -1.10611,-2.23813 -1.39276,-3.44226 -1.71224,-7.19282 0.73629,-17.80736 -0.22203,-25.27646 0.19184,-16.02393 0.33218,-32.04852 0.62399,-48.07118 0.53652,-28.08126 1.41793,-56.15555 1.66058,-84.24218 0.029,-17.3695 0.2668,-34.83207 -1.25946,-52.15769 -0.59405,-6.74347 -1.75663,-17.88661 -4.62938,-24.57679 -0.96615,-2.25004 -2.80406,-4.01518 -4.20609,-6.02277 -2.19492,-0.71488 -4.27702,-2.08926 -6.58476,-2.14465 -3.422,-0.0821 -12.1749,4.48115 -10.11981,1.74374 4.39898,-5.85951 25.37462,-13.55122 18.13538,-12.4206 -8.09101,1.26364 -14.19772,8.20107 -20.93399,12.85768 -27.35533,18.91009 -31.095,24.24429 -57.2345,48.31747 -11.63177,13.18835 -24.22378,25.58831 -34.89532,39.56503 -26.48449,34.68725 -50.95812,75.31259 -65.5629,116.54895 -8.48796,23.96562 -16.341,48.65686 -18.53676,73.98619 -1.70503,19.66853 9.70118,111.49438 12.51527,135.94246 0,0 -32.68318,17.06996 -32.68318,17.06996 z"
       inkscape:connector-curvature="0" />
    <path
       style="fill:#550000"
       id="path2987"
       d="m 365.82736,465.83046 c -18.72855,8.48611 15.76551,-10.46693 24.39589,-14.22632 3.02502,-1.3177 -5.04207,4.28041 -7.29307,6.6929 -8.75062,9.37838 -13.81903,19.95903 -18.92329,31.55499 -6.50684,18.63341 -11.72748,38.92833 -5.22455,58.35938 1.06524,3.18297 2.75847,6.12005 4.13771,9.18007 10.70247,16.68477 26.84694,19.93409 45.21424,22.3302 -3.72166,6.06723 16.30305,-5.75259 12.45173,-3.76103 -10.39992,5.3779 -20.15473,12.17007 -31.10269,16.32006 -2.14404,0.81273 2.66971,-3.77169 3.56639,-5.882 2.67677,-6.29979 3.17489,-12.05916 4.27773,-18.76738 1.54472,-12.61119 1.71946,-25.32581 1.76774,-38.01222 0,0 36.75235,-18.66623 36.75235,-18.66623 l 0,0 c -0.28364,12.90242 -0.60557,25.81073 -1.87582,38.66359 -0.55965,4.49294 -2.07894,23.68917 -6.06242,26.69811 -12.60738,9.52306 -26.39275,17.40145 -40.00581,25.42137 -1.85089,1.09043 -4.05911,1.52094 -6.18988,1.79409 -2.41642,0.30977 -4.8722,-0.0425 -7.3083,-0.0637 -19.61164,-3.33725 -36.11447,-7.88412 -47.03817,-26.03675 -1.46194,-3.30284 -3.23255,-6.48567 -4.38584,-9.90853 -6.81828,-20.23603 -2.09017,-41.2051 4.42024,-60.82317 1.65134,-4.08319 3.09269,-8.25772 4.95401,-12.24956 13.20984,-28.33013 35.9345,-44.56197 67.09391,-54.18736 0,0 -33.6221,25.5695 -33.6221,25.5695 z"
       inkscape:connector-curvature="0" />
    <path
       style="fill:#550000"
       id="path2989"
       d="m 187.42598,625.48942 c -0.51001,14.78786 -0.50104,29.59078 -0.55174,44.38618 0.33154,17.44588 -0.64442,34.94248 0.64813,52.35104 2.10782,15.79742 3.64419,31.64442 4.48934,47.55804 0.29714,11.91931 0.91787,23.76611 2.1759,35.61942 0.9476,11.82344 -3.28631,18.79447 -13.90908,24.82846 -48.24366,27.40359 -35.15678,21.85878 -70.79052,33.23239 -52.730862,14.16475 -106.7397505,22.60491 -160.515302,31.6501 19.243462,-12.38838 -34.73975,11.05567 -27.096005,5.8625 11.070095,-7.52103 23.207213,-13.34178 34.960086,-19.74356 1.593687,-0.86808 3.233363,-1.93718 5.044805,-2.04709 4.589745,-0.27849 9.171826,0.68667 13.764788,0.90579 6.588571,0.31433 13.184005,0.46292 19.7760071,0.69438 40.8108289,0.9284 81.6351989,1.10458 122.4550309,1.21609 12.28229,0.0335 24.56696,0.28394 36.84697,0.0449 12.18667,-0.23719 24.35817,-0.98216 36.53726,-1.47324 30.07345,-1.71788 60.16459,-3.48933 90.12754,-6.66674 12.40581,-1.31557 24.93701,-2.59669 36.96145,-6.02099 -11.98661,7.75494 -23.49999,16.29558 -35.95982,23.26483 -1.98805,1.11199 -4.52857,0.51737 -6.80241,0.65368 -4.58314,0.27475 -9.17502,0.37688 -13.76194,0.57911 -7.43186,0.32767 -14.86065,0.72739 -22.29433,1.01058 -37.78657,1.4395 -35.50894,1.10547 -78.5934,1.68797 -84.383808,0.88314 -168.820207,0.505 -253.142532,4.38652 -36.700168,1.68938 -56.357268,3.4331 -91.831518,6.14993 -38.3387,3.58698 -20.69364,1.75463 -52.95125,5.33996 0,0 31.09059,-23.01406 31.09059,-23.01406 l 0,0 c 30.36579,-1.99806 13.69809,-0.95736 50.00758,-3.04969 33.32859,-1.66155 54.66755,-2.8709 88.945022,-3.88897 84.960683,-2.52342 169.999578,-1.83716 254.925888,-5.70409 35.45342,-1.74944 70.73221,-3.76902 106.10034,-6.6508 4.96576,-0.40461 9.92217,-1.02082 14.90289,-1.14292 3.03966,-0.0745 11.17717,-1.67065 9.10486,0.55435 -9.40913,10.10239 -21.97905,16.71174 -32.96857,25.06761 -40.59979,5.66622 -81.84029,5.59952 -122.65978,8.53638 -12.18596,0.4408 -24.3662,1.08794 -36.55787,1.32239 -12.34437,0.2374 -24.69327,0.0498 -37.039857,0.093 -41.649683,0.14565 -83.2988282,0.45652 -124.94881,0.49979 -6.921094,-0.0367 -13.842865,-0.007 -20.763284,-0.10996 -5.027567,-0.0751 -10.131228,0.47312 -15.07838,-0.42564 -3.519232,-0.63934 -12.416279,-1.56173 -9.910484,-4.11413 21.450473,-21.84943 36.256666,-23.34431 61.52714,-26.8924 53.84363,-8.23716 107.851182,-16.74622 160.192545,-32.20336 32.59157,-11.51538 23.62198,-10.38779 2.47197,5.3023 -2.76268,2.04948 6.09704,-3.25666 8.81673,-5.36285 4.01359,-3.10821 5.28849,-5.21969 5.90795,-9.96787 0.21575,-1.65373 -0.0217,-3.33542 -0.0325,-5.00313 -1.17336,-12.0065 -1.72941,-23.99837 -1.7735,-36.06704 -0.76784,-15.90387 -2.18919,-31.74208 -4.28638,-47.52919 -1.48685,-17.51807 -0.44034,-35.11703 -0.71893,-52.68228 -0.0502,-14.60789 -0.0359,-29.22386 -0.55174,-43.82393 0,0 37.7091,-19.21374 37.7091,-19.21374 z"
       inkscape:connector-curvature="0" />
  </g>
</svg>
